<svg width="22" height="25" viewBox="0 0 22 25" fill="none" xmlns="http://www.w3.org/2000/svg">
<path d="M15.595 3.77138L16.0648 3.49731L21.272 6.512V10.897L20.6456 10.5446L12.2671 5.68982L15.595 3.77138Z" fill="#CBD31E"/>
<path d="M20.8025 12.0716L21.2723 12.3065V18.3359L17.4746 20.5284V19.7845V10.114L20.8025 12.0716Z" fill="#25AFC0"/>
<path d="M11.0143 0.600098L14.812 2.7926L14.1856 3.18412L5.80713 7.99979V4.16291V3.61479L11.0143 0.600098Z" fill="#F9C136"/>
<path d="M4.47613 4.39771V5.14159V14.9295L1.06992 12.972L0.600098 12.6979V6.59021L4.47613 4.39771Z" fill="#FC5B63"/>
<path d="M7.80376 21.977L16.2606 17.083V20.9982V21.5463L10.9751 24.6002L7.13818 22.3685L7.80376 21.977Z" fill="#4677CD"/>
<path d="M1.26568 14.4988L9.76162 19.432L6.35541 21.3896L5.88559 21.6245L0.600098 18.6098V14.1465L1.26568 14.4988Z" fill="#A756C7"/>
</svg>
